<?xml version="1.0" encoding="utf-8"?>
<!-- Generator: Adobe Illustrator 19.0.0, SVG Export Plug-In . SVG Version: 6.00 Build 0)  -->
<svg version="1.1" id="Layer_1" xmlns="http://www.w3.org/2000/svg" xmlns:xlink="http://www.w3.org/1999/xlink" x="0px" y="0px"
	 viewBox="-241 333 128 128" style="enable-background:new -241 333 128 128;" xml:space="preserve">
<metadata><?xpacket begin="﻿" id="W5M0MpCehiHzreSzNTczkc9d"?>
<x:xmpmeta xmlns:x="adobe:ns:meta/" x:xmptk="Adobe XMP Core 5.6-c067 79.157747, 2015/03/30-23:40:42        ">
   <rdf:RDF xmlns:rdf="http://www.w3.org/1999/02/22-rdf-syntax-ns#">
      <rdf:Description rdf:about=""/>
   </rdf:RDF>
</x:xmpmeta>
                                                                                                    
                                                                                                    
                                                                                                    
                                                                                                    
                                                                                                    
                                                                                                    
                                                                                                    
                                                                                                    
                                                                                                    
                                                                                                    
                                                                                                    
                                                                                                    
                                                                                                    
                                                                                                    
                                                                                                    
                                                                                                    
                                                                                                    
                                                                                                    
                                                                                                    
                                                                                                    
                           
<?xpacket end="w"?></metadata>
<g id="XMLID_37_">
	<g id="XMLID_39_">
		<path id="XMLID_22_" d="M-134.9,433h-84.6c-2.1,0-4-1.1-5.1-2.8c-1.1-1.8-1.2-4-0.3-5.8l21.2-43.1c0-0.1,0.1-0.1,0.1-0.2l21.2-40
			c1-2,3.1-3.1,5.3-3.1c0,0,0,0,0,0c2.2,0,4.3,1.2,5.3,3.2l18.5,36.4c1.5,3,0.3,6.5-2.6,8c-3,1.5-6.6,0.3-8.1-2.6l-13.3-26.1
			l-15.7,29.8l-16.9,34.3h64.8l-7.7-14h-21.8c-3.3,0-6-2.7-6-6s2.7-6,6-6h25.3c2.2,0,4.2,1.2,5.3,3.1l14.3,26c1,1.9,1,4.1-0.1,5.9
			S-132.8,433-134.9,433z"/>
	</g>
	<g id="XMLID_38_">
		<path id="XMLID_30_" d="M-134.5,455h-84c-3.3,0-6-2.7-6-6s2.7-6,6-6h84c3.3,0,6,2.7,6,6S-131.2,455-134.5,455z"/>
	</g>
</g>
</svg>
