<?xml version="1.0" encoding="utf-8"?>
<!-- Generator: Adobe Illustrator 19.0.0, SVG Export Plug-In . SVG Version: 6.00 Build 0)  -->
<svg version="1.1" id="Layer_1" xmlns="http://www.w3.org/2000/svg" xmlns:xlink="http://www.w3.org/1999/xlink" x="0px" y="0px"
	 viewBox="0 0 720 400" style="enable-background:new 0 0 720 400;" xml:space="preserve">
<metadata><?xpacket begin="﻿" id="W5M0MpCehiHzreSzNTczkc9d"?>
<x:xmpmeta xmlns:x="adobe:ns:meta/" x:xmptk="Adobe XMP Core 5.6-c067 79.157747, 2015/03/30-23:40:42        ">
   <rdf:RDF xmlns:rdf="http://www.w3.org/1999/02/22-rdf-syntax-ns#">
      <rdf:Description rdf:about=""/>
   </rdf:RDF>
</x:xmpmeta>
                                                                                                    
                                                                                                    
                                                                                                    
                                                                                                    
                                                                                                    
                                                                                                    
                                                                                                    
                                                                                                    
                                                                                                    
                                                                                                    
                                                                                                    
                                                                                                    
                                                                                                    
                                                                                                    
                                                                                                    
                                                                                                    
                                                                                                    
                                                                                                    
                                                                                                    
                                                                                                    
                           
<?xpacket end="w"?></metadata>
<g id="XMLID_181_">
	<path id="XMLID_186_" d="M196,27.6c-94.6,0-171.5,76.9-171.5,171.5S101.4,370.6,196,370.6s171.5-76.9,171.5-171.5
		S290.6,27.6,196,27.6z M196,328c-70.9,0-128.5-57.8-128.5-128.7S125.1,71.1,196,71.1c63,0,115.6,45.9,126.5,105.9H212.9
		c-11.9,0-20.9,8.8-20.9,20.7v63.5c0,11.9,9.6,21.5,21.5,21.5s21.5-9.6,21.5-21.5V220h87.9C313.2,281,260,328,196,328z"/>
	<path id="XMLID_183_" d="M692.6,331.3l-148-291c-3.7-7.2-11.1-11.8-19.2-11.8s-15.5,4.5-19.2,11.8l-148,291
		c-3.4,6.7-3.1,14.9,0.8,21.2c3.9,6.4,10.9,10.5,18.3,10.5h296c7.5,0,14.4-4.1,18.3-10.5C695.7,346.1,696,337.9,692.6,331.3z
		 M412.5,320L525.4,97.9L638.4,320H412.5z"/>
	<path id="XMLID_182_" d="M475.9,256.5c0,11.9,9.6,21.5,21.5,21.5h56c11.9,0,21.5-9.6,21.5-21.5s-9.6-21.5-21.5-21.5h-56
		C485.5,235,475.9,244.6,475.9,256.5z"/>
</g>
</svg>
